<svg version="1.0" xmlns="http://www.w3.org/2000/svg"
 width="257.000000pt" height="285.000000pt" viewBox="0 0 257.000000 285.000000"
 preserveAspectRatio="xMidYMid meet">

<g transform="translate(0.000000,285.000000) scale(0.100000,-0.100000)"
fill="#000000" stroke="none">
<path d="M1387 2788 c-43 -42 -81 -109 -100 -178 -30 -107 -37 -138 -37 -163
0 -31 -25 -47 -73 -47 -78 0 -217 -57 -307 -126 -133 -102 -200 -206 -261
-404 -19 -61 -19 -309 0 -370 43 -142 91 -225 181 -316 62 -63 170 -131 256
-163 27 -9 91 -23 141 -31 120 -17 221 -3 343 47 206 84 344 248 406 481 17
63 19 257 3 316 -43 164 -70 222 -150 322 -51 64 -143 140 -211 175 -21 11
-38 24 -38 30 0 5 17 36 38 67 81 119 96 153 96 217 1 51 -3 66 -29 102 -39
54 -80 73 -160 73 -58 0 -66 -3 -98 -32z m51 -331 c23 -10 42 -25 42 -32 0
-23 -28 -37 -62 -30 -96 19 -111 32 -88 76 12 22 37 19 108 -14z m-437 -622
c124 -80 166 -95 272 -95 102 0 136 10 272 79 68 35 89 41 141 41 52 0 67 -5
101 -29 80 -58 108 -166 78 -293 -52 -216 -209 -389 -410 -451 -111 -34 -172
-41 -248 -28 -266 45 -446 196 -522 439 -24 76 -23 227 3 284 35 79 90 111
178 105 53 -4 72 -11 135 -52z"/>
<path d="M992 1594 c-25 -17 -28 -41 -8 -66 27 -36 85 -12 86 34 0 15 -34 48
-50 48 -3 0 -16 -7 -28 -16z"/>
<path d="M1497 1593 c-11 -11 -8 -58 5 -71 7 -7 21 -12 33 -12 12 0 26 5 33
12 7 7 12 21 12 33 0 12 -5 26 -12 33 -13 13 -60 16 -71 5z"/>
<path d="M1105 1381 c-9 -30 4 -50 54 -79 38 -22 58 -27 116 -27 77 0 125 17
165 60 19 20 22 29 14 43 -17 26 -39 25 -83 -4 -58 -38 -136 -38 -185 0 -41
31 -72 34 -81 7z"/>
<path d="M974 680 c-23 -10 -54 -35 -70 -56 -26 -33 -29 -46 -29 -110 0 -66 3
-76 31 -111 63 -78 172 -97 255 -45 199 128 30 419 -187 322z m157 -81 c34
-24 53 -71 44 -106 -3 -15 -22 -42 -41 -60 -49 -46 -96 -46 -149 0 -34 30 -38
38 -38 80 0 97 101 145 184 86z"/>
<path d="M2230 682 c-52 -26 -65 -60 -68 -194 -4 -124 4 -158 39 -158 24 0 39
36 39 96 l0 45 78 -3 77 -3 5 -62 c3 -34 8 -65 12 -68 4 -4 19 -5 33 -1 l25 6
0 133 c0 147 -7 169 -59 204 -42 28 -128 31 -181 5z m146 -77 c43 -43 29 -60
-50 -63 -77 -3 -90 3 -81 40 13 50 90 64 131 23z"/>
<path d="M133 683 c-33 -6 -63 -54 -63 -102 0 -31 7 -49 32 -77 l32 -36 -22
-42 c-27 -50 -28 -83 -3 -91 32 -10 48 5 77 71 l29 64 52 0 52 0 3 -61 c3 -65
19 -88 52 -76 14 6 16 28 16 176 0 145 -2 170 -16 175 -17 7 -206 6 -241 -1z
m182 -103 l0 -35 -63 -3 c-88 -4 -137 29 -100 66 9 9 38 12 88 10 l75 -3 0
-35z"/>
<path d="M487 683 c-4 -3 -7 -82 -7 -174 0 -160 1 -168 20 -174 42 -13 49 8
52 148 l3 132 80 0 80 0 3 -135 c1 -74 7 -139 12 -144 5 -5 20 -6 34 -2 l26 6
0 169 c0 145 -2 170 -16 175 -21 8 -279 8 -287 -1z"/>
<path d="M1330 671 c-5 -11 -10 -83 -10 -161 0 -78 5 -150 10 -161 10 -18 23
-19 175 -19 90 0 170 3 179 6 14 5 16 30 16 174 0 146 -2 169 -16 174 -9 4
-25 4 -35 1 -17 -6 -19 -21 -21 -143 l-3 -137 -35 0 -35 0 -3 137 c-3 144 -8
157 -53 143 -17 -6 -19 -21 -21 -143 l-3 -137 -35 0 -35 0 -3 129 c-1 75 -7
135 -14 143 -16 19 -46 16 -58 -6z"/>
<path d="M1813 683 c-10 -3 -13 -48 -13 -174 l0 -169 25 -6 c33 -8 34 -7 44
56 9 56 48 107 74 97 8 -3 30 -36 49 -73 38 -74 56 -91 82 -81 24 9 20 50 -11
104 -14 26 -35 63 -45 81 -24 43 -24 46 17 89 39 41 42 54 20 73 -24 20 -57 2
-110 -60 -27 -32 -56 -59 -62 -59 -9 -1 -13 16 -13 52 0 66 -17 87 -57 70z"/>
</g>
</svg>
