<?xml version="1.0" standalone="no"?>
<!DOCTYPE svg PUBLIC "-//W3C//DTD SVG 20010904//EN"
 "http://www.w3.org/TR/2001/REC-SVG-20010904/DTD/svg10.dtd">
<svg version="1.0" xmlns="http://www.w3.org/2000/svg"
 width="513.000000pt" height="516.000000pt" viewBox="0 0 513.000000 516.000000"
 preserveAspectRatio="xMidYMid meet">

<g transform="translate(0.000000,516.000000) scale(0.100000,-0.100000)"
fill="#000000" stroke="none">
<path d="M2441 5139 c-19 -6 -35 -18 -38 -30 -3 -11 -28 -29 -63 -45 -68 -30
-131 -92 -159 -155 -27 -60 -51 -203 -51 -301 0 -71 2 -80 20 -85 16 -4 20
-14 20 -48 0 -100 85 -299 161 -378 48 -49 59 -64 40 -52 -5 3 -17 -8 -27 -24
-10 -17 -29 -31 -45 -35 -37 -7 -139 -94 -199 -169 -201 -254 -348 -826 -310
-1217 12 -127 37 -260 51 -274 5 -5 27 -11 50 -12 56 -2 84 -30 69 -68 -32
-86 15 -155 125 -182 23 -6 10 -9 -60 -16 -49 -4 -122 -15 -161 -23 -70 -16
-74 -15 -131 10 -1 1 5 23 13 50 12 40 14 75 8 175 -4 69 -8 339 -8 600 -1
454 -2 477 -21 514 -34 67 -59 79 -187 87 -62 4 -273 6 -468 4 -697 -8 -784
-20 -895 -132 -93 -93 -137 -246 -156 -549 -12 -186 -6 -729 9 -794 11 -51 59
-65 166 -51 44 6 157 14 250 17 163 7 173 6 206 -15 19 -11 49 -21 67 -21 19
0 50 -12 75 -29 24 -16 82 -48 131 -72 48 -24 87 -46 87 -49 0 -3 -16 -15 -35
-28 -24 -15 -43 -20 -60 -16 -14 3 -69 3 -122 -1 -88 -6 -99 -10 -125 -35 -17
-17 -35 -26 -46 -24 -63 17 -101 -47 -133 -221 -24 -138 -21 -203 10 -224 33
-21 27 -78 -18 -184 -46 -109 -86 -225 -80 -231 4 -3 189 -15 262 -16 23 0 26
-3 19 -17 -18 -34 -23 -118 -12 -188 13 -82 55 -179 111 -252 l40 -53 -38 0
c-130 0 -489 -59 -532 -87 l-25 -16 22 -18 c156 -126 2276 -194 3707 -119 764
40 1137 109 920 170 -25 7 -45 15 -44 19 0 3 22 23 49 43 70 53 145 165 175
259 49 154 41 306 -21 448 -13 29 -24 55 -24 56 0 2 10 6 23 9 46 13 97 74 97
116 0 37 -44 99 -103 145 -71 55 -221 129 -309 151 -125 32 -318 22 -430 -21
-13 -5 -20 -1 -27 16 -7 19 -3 35 20 76 41 75 38 109 -25 275 -94 250 -295
696 -346 768 -11 16 -20 32 -20 38 0 5 34 13 76 17 98 9 99 11 82 180 l-13
130 -87 3 -88 3 0 208 c0 115 -3 223 -6 241 -5 22 -18 39 -45 57 l-37 25 5 72
6 73 -33 23 c-30 22 -35 22 -59 9 -53 -30 -131 -199 -131 -284 0 -109 109 -97
171 19 13 26 27 46 30 46 3 0 16 -11 28 -24 21 -23 22 -32 26 -247 4 -234 4
-239 -40 -239 -24 0 -143 -55 -168 -78 -13 -12 -20 -13 -29 -4 -18 18 -61 14
-131 -12 l-64 -24 -129 39 c-169 50 -256 82 -384 139 -58 26 -130 55 -160 65
-30 10 -62 24 -71 32 -23 20 -43 156 -27 182 9 16 6 68 -15 251 l-27 231 26
40 c39 62 41 92 9 117 l-27 21 22 31 c12 16 23 30 26 30 2 0 22 -11 42 -25 56
-37 148 -67 225 -73 82 -6 100 7 123 83 18 63 14 74 -37 114 -21 18 -39 36
-39 41 0 5 24 10 52 12 44 2 53 6 56 23 2 11 18 35 35 52 l31 33 -37 35 c-20
19 -41 52 -46 73 -12 43 -14 142 -3 158 4 6 38 17 76 23 83 15 169 48 228 89
52 37 98 80 98 92 0 5 -26 12 -57 15 -32 4 -121 17 -197 29 l-139 21 -12 42
c-26 86 -104 232 -133 247 -25 13 -177 40 -297 53 -27 3 -59 12 -70 19 -22 16
-36 16 -84 3z m129 -94 c19 -19 32 -35 29 -35 -3 0 -20 16 -39 35 -19 19 -32
35 -29 35 3 0 20 -16 39 -35z m-14 -27 l29 -33 -32 29 c-18 17 -33 31 -33 33
0 8 8 1 36 -29z m325 -25 c13 -16 12 -17 -3 -4 -17 13 -22 21 -14 21 2 0 10
-8 17 -17z m-607 -40 c-45 -60 -44 -59 -44 -45 0 11 67 92 76 92 2 0 -12 -21
-32 -47z m367 10 c13 -16 12 -17 -3 -4 -10 7 -18 15 -18 17 0 8 8 3 21 -13z
m267 -18 c-3 -3 -9 2 -12 12 -6 14 -5 15 5 6 7 -7 10 -15 7 -18z m-258 -55 c6
-11 8 -20 6 -20 -3 0 -10 9 -16 20 -6 11 -8 20 -6 20 3 0 10 -9 16 -20z m-453
-142 c-3 -8 -6 -5 -6 6 -1 11 2 17 5 13 3 -3 4 -12 1 -19z m-10 -80 c-3 -8 -6
-5 -6 6 -1 11 2 17 5 13 3 -3 4 -12 1 -19z m613 -13 c-7 -8 -17 -15 -23 -15
-6 0 -2 7 9 15 25 19 30 19 14 0z m-56 -37 c-3 -4 -9 -8 -15 -8 -5 0 -9 4 -9
8 0 5 7 9 15 9 8 0 12 -4 9 -9z m184 -95 c62 -5 72 -8 72 -25 0 -15 -5 -18
-20 -13 -28 9 -94 -12 -116 -36 -19 -22 -19 -22 1 -11 21 10 63 16 103 14 15
-2 22 -8 22 -22 0 -49 24 -122 51 -157 l30 -37 -25 -19 c-14 -10 -26 -27 -26
-37 0 -25 -31 -33 -77 -21 -23 7 -41 7 -47 1 -12 -12 16 -57 61 -96 40 -35 47
-77 19 -120 -22 -32 -57 -39 -130 -26 -126 24 -242 104 -325 225 -18 27 -31
49 -29 50 31 16 43 26 46 37 3 8 -1 11 -9 8 -47 -18 -57 -17 -80 1 -46 37 -25
164 33 200 25 16 44 1 65 -50 15 -37 40 -57 54 -42 4 4 30 53 58 107 28 55 56
103 62 107 6 3 39 -2 72 -13 34 -11 95 -22 135 -25z m-385 -468 c50 -57 53
-66 13 -40 -25 17 -82 95 -69 95 5 0 30 -25 56 -55z m-49 10 c9 -13 16 -27 16
-30 0 -4 -27 10 -59 31 -5 4 10 24 18 24 5 0 16 -11 25 -25z m57 -70 c33 -7
34 -12 14 -39 -16 -21 -13 -22 -92 28 -53 33 -60 41 -51 56 11 16 14 16 56
-11 24 -15 57 -31 73 -34z m-75 -62 c64 -40 104 -72 103 -82 0 -11 -2 -12 -6
-3 -6 15 -153 116 -159 109 -8 -8 139 -136 149 -130 6 3 7 1 3 -6 -9 -14 -44
10 -106 74 -25 26 -57 53 -72 61 -24 13 -40 44 -22 44 4 0 53 -30 110 -67z
m-231 -22 c-6 -4 -30 -25 -55 -46 l-45 -37 48 46 c27 25 52 46 55 46 3 0 2 -4
-3 -9z m235 -88 c0 -8 -9 0 -50 45 l-45 47 48 -45 c26 -24 47 -45 47 -47z
m-89 60 c13 -16 12 -17 -3 -4 -10 7 -18 15 -18 17 0 8 8 3 21 -13z m114 -143
c3 -5 -10 -1 -29 11 -20 12 -36 23 -36 25 0 7 58 -25 65 -36z m-110 11 c-47
-21 -102 -80 -111 -119 -9 -44 -12 -49 -13 -21 -2 53 98 159 149 159 8 0 -3
-9 -25 -19z m-131 -16 c-9 -14 -18 -25 -21 -25 -5 0 5 18 20 38 17 22 18 13 1
-13z m76 21 c0 -2 -8 -10 -17 -17 -16 -13 -17 -12 -4 4 13 16 21 21 21 13z
m-260 -36 c-6 -11 -13 -20 -16 -20 -2 0 0 9 6 20 6 11 13 20 16 20 2 0 0 -9
-6 -20z m460 -59 c0 -45 -6 -37 -14 19 -4 31 -3 40 4 30 5 -8 10 -30 10 -49z
m1176 -92 c-3 -33 -15 -81 -26 -106 -23 -53 -24 -57 -8 -47 7 4 8 3 4 -5 -4
-6 -11 -9 -15 -6 -8 5 -31 -18 -46 -45 -5 -8 4 -4 20 10 l28 25 -18 -27 c-20
-32 -24 -33 -50 -14 -17 12 -18 18 -7 67 22 95 84 209 115 209 6 0 7 -24 3
-61z m-1169 -16 c-2 -16 -4 -5 -4 22 0 28 2 40 4 28 2 -13 2 -35 0 -50z m1190
-10 c-2 -16 -4 -3 -4 27 0 30 2 43 4 28 2 -16 2 -40 0 -55z m-1470 -115 c-2
-29 -3 -6 -3 52 0 58 1 81 3 53 2 -29 2 -77 0 -105z m290 40 c-2 -13 -4 -5 -4
17 -1 22 1 32 4 23 2 -10 2 -28 0 -40z m-408 -8 c11 -24 11 -24 -3 -6 -9 11
-16 24 -16 30 0 12 5 7 19 -24z m418 -72 c-2 -13 -4 -5 -4 17 -1 22 1 32 4 23
2 -10 2 -28 0 -40z m-1664 -5 c-24 -2 -62 -2 -85 0 -24 2 -5 4 42 4 47 0 66
-2 43 -4z m675 0 c-10 -2 -26 -2 -35 0 -10 3 -2 5 17 5 19 0 27 -2 18 -5z
m-971 -9 c-3 -3 -12 -4 -19 -1 -8 3 -5 6 6 6 11 1 17 -2 13 -5z m1554 -11 c13
-16 12 -17 -3 -4 -10 7 -18 15 -18 17 0 8 8 3 21 -13z m-1688 0 c-7 -2 -19 -2
-25 0 -7 3 -2 5 12 5 14 0 19 -2 13 -5z m850 0 c-46 -2 -120 -2 -165 0 -46 1
-9 3 82 3 91 0 128 -2 83 -3z m-355 -10 c-10 -2 -26 -2 -35 0 -10 3 -2 5 17 5
19 0 27 -2 18 -5z m580 0 c-10 -2 -26 -2 -35 0 -10 3 -2 5 17 5 19 0 27 -2 18
-5z m666 -9 c5 -14 4 -15 -9 -4 -17 14 -19 20 -6 20 5 0 12 -7 15 -16z m63
-16 c-3 -7 -5 -2 -5 12 0 14 2 19 5 13 2 -7 2 -19 0 -25z m-1424 15 c-7 -2
-21 -2 -30 0 -10 3 -4 5 12 5 17 0 24 -2 18 -5z m800 0 c-7 -2 -19 -2 -25 0
-7 3 -2 5 12 5 14 0 19 -2 13 -5z m911 -70 c-10 -7 -25 -13 -33 -13 -10 0 -6
5 9 13 18 9 26 23 30 47 l4 35 4 -35 c2 -24 -2 -38 -14 -47z m-2235 63 c-2 -2
-15 -9 -29 -15 -24 -11 -24 -11 -6 3 16 13 49 24 35 12z m434 -3 c-7 -2 -19
-2 -25 0 -7 3 -2 5 12 5 14 0 19 -2 13 -5z m1437 -18 c13 -14 21 -25 18 -25
-2 0 -15 11 -28 25 -13 14 -21 25 -18 25 2 0 15 -11 28 -25z m-1507 8 c-7 -2
-19 -2 -25 0 -7 3 -2 5 12 5 14 0 19 -2 13 -5z m-276 -9 c-3 -3 -12 -4 -19 -1
-8 3 -5 6 6 6 11 1 17 -2 13 -5z m210 0 c-3 -3 -12 -4 -19 -1 -8 3 -5 6 6 6
11 1 17 -2 13 -5z m-250 -10 c-3 -3 -12 -4 -19 -1 -8 3 -5 6 6 6 11 1 17 -2
13 -5z m-153 -39 c-9 -14 -19 -23 -22 -20 -5 4 26 45 35 45 2 0 -4 -11 -13
-25z m2271 -15 c-27 -12 -43 -12 -25 0 8 5 22 9 30 9 10 0 8 -3 -5 -9z m89
-99 c3 -44 9 -86 12 -94 2 -7 -6 -19 -18 -26 -13 -6 -34 -28 -47 -49 l-23 -37
39 38 c47 45 65 49 29 6 -14 -17 -23 -35 -20 -41 3 -5 13 3 21 19 27 53 43 64
82 57 20 -4 77 -24 126 -46 199 -87 385 -158 477 -182 l96 -24 76 24 c112 35
118 34 156 -32 35 -63 48 -118 31 -128 -7 -5 -11 2 -11 16 0 14 -6 33 -14 44
-13 17 -13 14 -4 -22 7 -24 8 -49 3 -60 -8 -16 -10 -13 -13 16 -2 19 -8 40
-13 45 -7 7 -8 1 -4 -18 9 -36 -17 -77 -50 -77 -24 0 -24 0 -7 29 20 36 6 75
-34 93 -22 10 -32 9 -62 -7 -24 -13 -38 -29 -40 -43 l-4 -24 -24 23 c-13 12
-24 28 -24 36 0 7 -6 13 -14 13 -10 0 -13 11 -10 41 3 35 2 39 -10 30 -8 -7
-22 -28 -31 -47 -9 -19 -19 -32 -23 -30 -4 2 -86 18 -182 35 -96 17 -254 49
-350 71 -96 21 -196 42 -222 45 l-46 7 -31 132 c-17 72 -34 141 -37 152 -5 19
4 25 82 53 48 18 94 36 103 41 8 4 18 7 22 4 3 -2 9 -39 13 -83z m-2354 74 c0
-2 -10 -9 -22 -15 -22 -11 -22 -10 -4 4 21 17 26 19 26 11z m2130 -20 c-46
-18 -64 -17 -25 0 17 8 37 14 45 14 8 0 -1 -7 -20 -14z m-1091 -365 c-15 -71
-25 -131 -23 -131 2 -1 10 -2 17 -3 6 -1 11 -8 9 -16 -7 -35 -65 -53 -90 -28
-9 9 -12 9 -12 0 0 -7 -16 -20 -35 -29 -33 -16 -36 -15 -55 2 -27 25 -26 77 4
142 26 55 62 86 101 86 21 0 26 6 32 41 8 38 36 65 69 66 6 0 0 -49 -17 -130z
m2688 -7 c-2 -16 -4 -3 -4 27 0 30 2 43 4 28 2 -16 2 -40 0 -55z m49 -35 c7
-90 6 -115 -4 -121 -8 -5 -15 -7 -17 -5 -1 1 -6 56 -10 121 -6 100 -5 117 8
117 12 0 17 -23 23 -112z m-3256 60 c0 -22 -33 -48 -61 -48 -32 0 -35 -3 -44
-51 -7 -35 -6 -36 24 -31 17 2 31 0 31 -5 0 -15 -23 -33 -41 -33 -24 0 -31
-13 -49 -99 -14 -66 -19 -76 -44 -84 -15 -5 -30 -7 -33 -4 -3 3 8 70 25 149
16 79 27 145 25 148 -13 14 -43 -46 -43 -86 0 -37 -3 -44 -19 -44 -26 0 -35
32 -21 74 19 58 81 100 172 115 75 12 78 12 78 -1z m1644 -14 c3 -8 2 -12 -4
-9 -6 3 -10 10 -10 16 0 14 7 11 14 -7z m-1360 -36 c15 -21 16 -21 36 -3 25
23 26 12 1 -29 -11 -17 -24 -50 -30 -72 -14 -54 -46 -93 -89 -111 -30 -12 -37
-12 -58 2 -18 12 -24 24 -24 53 0 56 47 141 90 164 45 23 56 23 74 -4z m2606
18 c0 -2 -8 -10 -17 -17 -16 -13 -17 -12 -4 4 13 16 21 21 21 13z m-1124 -77
c14 -28 24 -53 22 -55 -2 -2 -16 21 -31 51 -15 30 -25 55 -22 55 3 0 16 -23
31 -51z m-1665 9 c10 -18 11 -18 29 4 25 30 25 14 1 -26 -11 -17 -24 -50 -31
-74 -23 -87 -107 -146 -152 -105 -17 15 -19 26 -14 67 6 57 45 127 78 143 51
25 72 23 89 -9z m2047 -33 c183 -36 345 -65 360 -65 16 0 43 -11 62 -25 19
-14 39 -25 45 -25 7 0 20 -9 30 -20 10 -11 26 -20 36 -20 10 0 21 -4 24 -10 9
-15 57 -12 98 5 52 22 64 18 33 -10 -31 -29 -46 -64 -46 -111 0 -34 53 -196
175 -534 87 -240 102 -310 88 -396 -15 -84 -80 -217 -139 -283 -59 -65 -111
-96 -199 -117 -120 -28 -315 -10 -315 28 0 5 14 8 30 8 17 0 30 5 30 10 0 6
-7 10 -16 10 -12 0 -14 4 -7 13 5 6 16 46 23 87 17 102 47 181 152 410 125
269 218 502 218 543 0 72 -30 87 -452 225 -150 49 -328 104 -395 123 -116 32
-122 35 -116 57 3 15 -3 35 -19 60 -45 68 -60 102 -45 102 8 0 163 -29 345
-65z m979 33 c-3 -7 -5 -2 -5 12 0 14 2 19 5 13 2 -7 2 -19 0 -25z m-594 -40
c-5 -27 -23 -40 -23 -17 0 13 20 52 25 47 2 -1 1 -15 -2 -30z m-743 -52 c0 -2
-19 -19 -41 -37 -28 -22 -37 -26 -29 -13 7 11 24 27 39 36 31 19 31 19 31 14z
m902 -13 c19 -17 24 -43 8 -43 -5 0 -10 5 -10 11 0 5 -5 7 -10 4 -6 -4 -8 -11
-5 -16 4 -5 2 -9 -4 -9 -19 0 -34 40 -20 56 15 18 18 18 41 -3z m-1022 -18 c0
-2 -18 -14 -40 -25 -22 -11 -40 -18 -40 -15 0 2 17 13 38 24 42 23 42 23 42
16z m-841 -145 c-16 -77 -35 -152 -43 -168 -18 -35 -71 -60 -95 -45 -22 14
-26 57 -6 73 14 12 13 14 -7 24 -30 15 -33 52 -10 145 16 68 20 75 47 82 16 5
30 7 32 5 2 -1 -4 -39 -13 -84 -10 -46 -14 -86 -10 -90 13 -13 33 27 45 91 20
101 18 98 77 106 7 1 1 -48 -17 -139z m88 88 c-3 -7 -5 -2 -5 12 0 14 2 19 5
13 2 -7 2 -19 0 -25z m-257 -22 c0 -13 -7 -30 -16 -37 -14 -11 -18 -11 -29 4
-11 16 -13 16 -27 -1 -9 -9 -21 -49 -28 -89 -16 -87 -18 -91 -57 -99 l-31 -6
24 113 c13 61 26 114 29 117 2 3 21 6 40 7 20 1 39 5 42 9 3 3 17 6 30 6 18 0
23 -6 23 -24z m2450 19 c0 -3 -18 -29 -40 -58 -82 -109 -91 -185 -35 -282 113
-195 133 -256 142 -426 9 -180 -40 -413 -127 -604 -29 -65 -114 -185 -130
-185 -5 0 7 21 27 47 20 27 48 75 64 108 37 82 95 270 119 390 56 270 36 380
-120 663 -49 89 -53 147 -16 220 36 70 116 158 116 127z m-2972 -42 c4 -27
-35 -58 -55 -41 -7 6 -13 18 -13 27 0 42 62 55 68 14z m342 2 c19 -23 2 -71
-36 -105 -19 -16 -39 -30 -44 -30 -6 0 -10 -9 -10 -20 0 -24 32 -27 50 -5 21
26 31 16 15 -15 -15 -28 -60 -60 -86 -60 -24 0 -49 33 -49 65 0 70 43 149 94
171 40 17 51 17 66 -1z m2615 -23 l-28 -27 24 31 c13 17 26 30 28 27 3 -2 -8
-16 -24 -31z m-3090 -102 c-29 -145 -29 -140 -10 -140 21 0 19 -16 -5 -40 -27
-27 -58 -25 -71 4 -9 18 -5 50 15 145 14 67 26 124 26 127 0 5 63 34 68 30 1
-2 -9 -58 -23 -126z m1522 116 c-14 -11 -15 -15 -5 -20 7 -3 2 -3 -11 0 -16 4
-21 2 -17 -5 5 -7 1 -8 -10 -4 -13 5 -10 10 17 24 41 22 51 23 26 5z m-1213
-71 c-1 -65 -25 -124 -66 -162 -33 -31 -71 -38 -92 -18 -19 20 -19 19 2 124
16 79 19 85 47 93 16 4 31 5 33 3 4 -4 -10 -91 -25 -152 -4 -16 -1 -23 10 -23
20 0 44 39 59 95 11 42 11 48 -5 56 -14 8 -15 14 -6 30 6 11 18 19 27 17 14
-3 17 -15 16 -63z m-620 15 c60 -22 71 -123 26 -227 -29 -68 -67 -103 -116
-108 -21 -2 -52 -7 -68 -11 l-29 -7 7 44 c4 24 17 89 29 144 20 90 25 101 50
113 16 8 31 12 34 9 2 -3 -6 -60 -20 -126 -13 -67 -21 -124 -17 -126 18 -11
60 39 75 87 20 67 20 161 0 178 -20 16 -69 4 -105 -26 -31 -26 -56 -85 -46
-110 4 -11 0 -15 -17 -12 -17 2 -23 11 -25 35 -5 51 64 118 148 144 35 10 45
10 74 -1z m431 -22 c-28 -123 -32 -163 -16 -153 18 10 20 -12 5 -34 -12 -16
-24 -21 -47 -19 -31 3 -32 4 -31 53 1 78 22 163 42 168 42 11 52 7 47 -15z
m1145 -28 c-8 -5 -22 -9 -30 -9 -10 0 -8 3 5 9 27 12 43 12 25 0z m-1362 -37
c2 -23 -5 -40 -28 -67 -17 -19 -40 -38 -51 -41 -21 -7 -23 -13 -10 -34 8 -12
13 -12 35 2 30 20 36 21 36 6 0 -23 -59 -69 -89 -69 -47 0 -65 34 -51 96 20
89 73 147 130 141 20 -2 26 -8 28 -34z m1309 21 c-3 -3 -12 -4 -19 -1 -8 3 -5
6 6 6 11 1 17 -2 13 -5z m-40 -10 c-3 -3 -12 -4 -19 -1 -8 3 -5 6 6 6 11 1 17
-2 13 -5z m68 -74 c3 -5 1 -10 -4 -10 -6 0 -11 5 -11 10 0 6 2 10 4 10 3 0 8
-4 11 -10z m1830 -109 c14 -24 22 -40 15 -36 -18 11 -59 81 -65 112 l-6 28 14
-31 c8 -17 27 -50 42 -73z m88 70 c29 -11 82 -95 126 -200 17 -40 31 -75 31
-78 0 -10 -84 8 -105 21 -22 15 -135 223 -135 250 0 18 43 22 83 7z m-720
-209 c-1 -4 -27 -50 -59 -102 -74 -123 -195 -375 -270 -564 -55 -140 -57 -149
-40 -161 10 -8 35 -17 57 -20 30 -5 39 -11 39 -27 0 -11 -8 -22 -20 -25 -10
-3 -28 -20 -39 -39 l-20 -34 -88 6 c-97 7 -225 36 -259 59 -36 23 -67 118 -67
205 -1 137 60 228 234 351 85 60 104 98 103 200 -1 74 -1 76 28 88 16 7 36 27
44 45 l15 31 172 -3 c95 -1 171 -5 170 -10z m-1517 -20 c-17 -16 -18 -16 -5 5
7 12 15 20 18 17 3 -2 -3 -12 -13 -22z m-909 -8 c-3 -3 -12 -4 -19 -1 -8 3 -5
6 6 6 11 1 17 -2 13 -5z m251 -1 c-15 -2 -42 -2 -60 0 -18 2 -6 4 27 4 33 0
48 -2 33 -4z m1070 -50 c-10 -2 -28 -2 -40 0 -13 2 -5 4 17 4 22 1 32 -1 23
-4z m370 0 c-10 -2 -26 -2 -35 0 -10 3 -2 5 17 5 19 0 27 -2 18 -5z m1495
-124 c5 -43 2 -37 -13 31 -10 47 -19 90 -19 95 2 24 27 -76 32 -126z m-1980
114 c-7 -2 -21 -2 -30 0 -10 3 -4 5 12 5 17 0 24 -2 18 -5z m580 0 c-7 -2 -19
-2 -25 0 -7 3 -2 5 12 5 14 0 19 -2 13 -5z m-660 -10 c-7 -2 -19 -2 -25 0 -7
3 -2 5 12 5 14 0 19 -2 13 -5z m2257 -48 c0 -5 -5 -3 -10 5 -5 8 -10 20 -10
25 0 6 5 3 10 -5 5 -8 10 -19 10 -25z m-2764 -3 c-3 -5 -40 -19 -83 -32 -43
-12 -90 -30 -105 -38 -27 -16 -31 -15 -109 23 l-81 40 148 5 c82 3 168 7 192
8 24 1 41 -2 38 -6z m1304 -105 c0 -2 -10 -12 -22 -23 l-23 -19 19 23 c18 21
26 27 26 19z m-1610 -81 c0 -2 -7 -7 -16 -10 -8 -3 -12 -2 -9 4 6 10 25 14 25
6z m693 -3 c-13 -2 -33 -2 -45 0 -13 2 -3 4 22 4 25 0 35 -2 23 -4z m-130 -10
c-7 -2 -19 -2 -25 0 -7 3 -2 5 12 5 14 0 19 -2 13 -5z m224 1 c-3 -3 -12 -4
-19 -1 -8 3 -5 6 6 6 11 1 17 -2 13 -5z m-827 -8 c0 -2 -8 -10 -17 -17 -16
-13 -17 -12 -4 4 13 16 21 21 21 13z m117 -2 c-3 -3 -12 -4 -19 -1 -8 3 -5 6
6 6 11 1 17 -2 13 -5z m420 0 c-3 -3 -12 -4 -19 -1 -8 3 -5 6 6 6 11 1 17 -2
13 -5z m943 -17 c0 -2 -12 -14 -27 -28 l-28 -24 24 28 c23 25 31 32 31 24z
m1437 -44 c-3 -10 -5 -4 -5 12 0 17 2 24 5 18 2 -7 2 -21 0 -30z m-3120 -33
c-68 -73 -134 -158 -176 -227 -18 -29 -34 -53 -35 -53 -2 0 20 74 48 165 l51
164 60 4 c33 2 71 4 84 5 20 2 16 -5 -32 -58z m123 37 c0 -1 -33 -34 -72 -72
l-73 -70 70 73 c64 67 75 77 75 69z m1130 -52 c13 -14 21 -25 18 -25 -2 0 -15
11 -28 25 -13 14 -21 25 -18 25 2 0 15 -11 28 -25z m-1460 0 c0 -2 -10 -10
-22 -16 -21 -11 -22 -11 -9 4 13 16 31 23 31 12z m3317 -27 c-3 -8 -6 -5 -6 6
-1 11 2 17 5 13 3 -3 4 -12 1 -19z m-3312 -133 c-24 -77 -49 -160 -56 -185 -6
-25 -14 -39 -16 -33 -7 19 31 157 72 266 21 54 39 96 41 94 2 -1 -17 -65 -41
-142z m1516 128 c13 -16 12 -17 -3 -4 -10 7 -18 15 -18 17 0 8 8 3 21 -13z
m2099 -13 c-6 -11 -13 -20 -16 -20 -2 0 0 9 6 20 6 11 13 20 16 20 2 0 0 -9
-6 -20z m-3200 7 c0 -2 -17 -19 -37 -38 l-38 -34 34 38 c33 34 41 42 41 34z
m1103 -46 c27 -46 14 -38 -18 12 -16 23 -22 37 -14 30 8 -6 22 -25 32 -42z
m61 -42 c16 -27 25 -53 22 -56 -3 -4 -6 -2 -6 3 0 6 -16 36 -35 68 -19 32 -29
53 -22 47 8 -6 26 -34 41 -62z m-1294 50 c0 -6 -29 -53 -65 -104 -52 -76 -72
-96 -106 -109 -23 -9 -44 -15 -46 -12 -2 2 3 18 11 35 19 36 20 44 4 35 -8 -4
-10 -3 -5 2 5 5 14 9 20 9 5 0 12 6 15 14 3 9 0 11 -9 6 -8 -5 -11 -4 -6 1 5
5 14 9 20 9 7 0 11 8 11 18 -1 9 2 15 6 12 12 -8 32 23 24 37 -4 7 -4 10 1 6
4 -4 23 6 42 22 33 29 83 41 83 19z m1457 -71 c-3 -8 -6 -5 -6 6 -1 11 2 17 5
13 3 -3 4 -12 1 -19z m1813 9 c0 -2 -10 -12 -22 -23 l-23 -19 19 23 c18 21 26
27 26 19z m-1954 -157 c7 -36 13 -87 13 -115 -1 -42 -3 -37 -11 30 -4 44 -15
103 -23 132 -9 29 -18 60 -20 70 -3 10 2 2 11 -17 9 -19 22 -64 30 -100z
m2410 109 c62 -11 158 -39 152 -44 -2 -2 -35 5 -73 16 -102 28 -223 34 -319
15 -44 -9 -81 -14 -84 -12 -3 4 26 11 123 30 41 8 143 6 201 -5z m-496 -2 c0
-2 -12 -14 -27 -28 l-28 -24 24 28 c23 25 31 32 31 24z m104 -78 c-27 -26
-134 -86 -134 -74 0 3 27 18 60 35 33 17 66 39 72 50 7 11 17 20 23 20 5 0 -4
-14 -21 -31z m632 -5 c32 -19 66 -42 74 -51 8 -9 0 -6 -19 7 -18 13 -56 36
-85 51 -28 16 -46 29 -40 29 5 0 37 -16 70 -36z m-4345 -10 c-5 -16 -10 -21
-10 -12 -1 18 10 51 15 45 2 -1 -1 -16 -5 -33z m3674 28 c-17 -15 -105 -63
-105 -58 0 3 24 19 53 36 52 30 69 37 52 22z m-135 -15 c0 -1 -24 -25 -52 -52
l-53 -50 50 53 c46 48 55 57 55 49z m348 -34 c-10 -2 -28 -2 -40 0 -13 2 -5 4
17 4 22 1 32 -1 23 -4z m100 0 c-10 -2 -28 -2 -40 0 -13 2 -5 4 17 4 22 1 32
-1 23 -4z m79 -9 c-3 -3 -12 -4 -19 -1 -8 3 -5 6 6 6 11 1 17 -2 13 -5z m169
-20 c18 -14 18 -14 -6 -3 -31 14 -36 19 -24 19 6 0 19 -7 30 -16z m229 -24
c10 -11 16 -20 13 -20 -3 0 -13 9 -23 20 -10 11 -16 20 -13 20 3 0 13 -9 23
-20z m-135 -45 c13 -14 21 -25 18 -25 -2 0 -15 11 -28 25 -13 14 -21 25 -18
25 2 0 15 -11 28 -25z m-24 -17 l29 -33 -32 29 c-31 28 -38 36 -30 36 2 0 16
-15 33 -32z m205 15 c13 -16 12 -17 -3 -4 -10 7 -18 15 -18 17 0 8 8 3 21 -13z
m-1941 -34 c0 -14 -78 -10 -115 5 -59 25 -39 34 40 18 41 -8 75 -19 75 -23z
m840 28 c0 -1 -57 -58 -127 -127 l-128 -125 125 128 c116 118 130 132 130 124z
m-893 -54 c47 -6 47 -7 18 -15 -54 -15 -125 6 -125 38 0 12 5 12 30 -1 16 -8
51 -18 77 -22z m933 14 c0 -2 -10 -12 -22 -23 l-23 -19 19 23 c18 21 26 27 26
19z m1070 -17 c0 -5 -10 -15 -22 -21 l-23 -12 20 21 c23 24 25 25 25 12z
m-2823 -52 c-3 -8 -6 -5 -6 6 -1 11 2 17 5 13 3 -3 4 -12 1 -19z m2400 16 c-3
-3 -12 -4 -19 -1 -8 3 -5 6 6 6 11 1 17 -2 13 -5z m100 0 c-3 -3 -12 -4 -19
-1 -8 3 -5 6 6 6 11 1 17 -2 13 -5z m-987 -47 c0 -2 -19 -21 -42 -42 l-43 -40
40 43 c36 39 45 47 45 39z m-1235 -27 c10 -11 16 -20 13 -20 -3 0 -13 9 -23
20 -10 11 -16 20 -13 20 3 0 13 -9 23 -20z m1945 -4 c0 -2 -8 -10 -17 -17 -16
-13 -17 -12 -4 4 13 16 21 21 21 13z m265 -8 c19 -8 24 -16 19 -31 -5 -17 -3
-19 18 -14 30 8 42 -1 27 -19 -9 -11 -7 -15 5 -20 9 -4 20 -4 23 0 10 10 51
-54 69 -106 39 -118 1 -260 -97 -363 -116 -123 -276 -152 -423 -78 -60 31
-149 113 -182 169 -21 36 -68 156 -62 158 2 1 30 15 63 32 l60 31 0 -81 c0
-130 49 -212 160 -266 134 -65 319 10 392 158 23 47 28 70 28 132 0 87 -19
134 -76 191 -37 37 -133 81 -176 81 -31 1 -29 6 10 23 39 17 107 19 142 3z
m-305 -21 c0 -2 -15 -16 -32 -33 l-33 -29 29 33 c28 30 36 37 36 29z m-636
-76 c-32 -79 -52 -159 -46 -188 6 -30 41 -49 109 -58 l53 -7 36 -114 c25 -81
48 -134 80 -179 24 -36 44 -66 44 -68 0 -1 -55 1 -122 4 -356 19 -1078 31
-1610 27 -323 -3 -588 -4 -588 -3 0 2 15 28 34 59 47 78 80 201 80 303 l1 81
815 4 c795 4 817 5 877 25 76 25 143 67 203 127 25 25 48 45 51 46 4 0 -4 -26
-17 -59z m-994 29 c0 -11 -7 -20 -15 -20 -17 0 -75 27 -75 35 0 3 20 5 45 5
38 0 45 -3 45 -20z m1890 -10 c41 -21 81 -63 104 -107 9 -18 16 -34 16 -38 0
-3 -22 -5 -50 -5 -49 0 -49 0 -40 -26 19 -49 9 -49 -18 1 -30 55 -96 102 -151
108 -19 2 -38 12 -43 21 -9 16 -5 18 38 14 47 -3 48 -2 56 30 10 37 19 37 88
2z m-1556 0 l251 -7 -262 0 c-222 -1 -263 2 -263 14 0 8 5 11 11 7 7 -4 125
-10 263 -14z m314 3 c-10 -2 -26 -2 -35 0 -10 3 -2 5 17 5 19 0 27 -2 18 -5z
m1052 3 c0 -3 -4 -8 -10 -11 -5 -3 -10 -1 -10 4 0 6 5 11 10 11 6 0 10 -2 10
-4z m-900 -10 c0 -2 -7 -7 -16 -10 -8 -3 -12 -2 -9 4 6 10 25 14 25 6z m90 0
c0 -2 -8 -10 -17 -17 -16 -13 -17 -12 -4 4 13 16 21 21 21 13z m650 -20 c0 -2
-8 -10 -17 -17 -16 -13 -17 -12 -4 4 13 16 21 21 21 13z m-704 -21 c-11 -8
-25 -15 -30 -15 -6 1 0 7 14 15 32 19 40 18 16 0z m-3146 -15 c0 -5 -5 -10
-11 -10 -5 0 -7 5 -4 10 3 6 8 10 11 10 2 0 4 -4 4 -10z m3810 6 c0 -2 -8 -10
-17 -17 -16 -13 -17 -12 -4 4 13 16 21 21 21 13z m-3362 -13 c-49 -2 -127 -2
-175 0 -49 1 -9 3 87 3 96 0 136 -2 88 -3z m1225 -8 c-3 -9 -8 -14 -10 -11 -3
3 -2 9 2 15 9 16 15 13 8 -4z m-301 -2 c-40 -2 -103 -2 -140 0 -37 2 -4 3 73
3 77 0 107 -2 67 -3z m733 -6 c22 -2 -18 -4 -88 -5 -71 -1 -126 1 -124 6 5 6
116 6 212 -1z m853 -4 c-15 -2 -42 -2 -60 0 -18 2 -6 4 27 4 33 0 48 -2 33 -4z
m1167 -21 c48 -26 95 -103 95 -157 0 -15 -9 -48 -21 -75 -18 -43 -27 -51 -81
-75 -57 -26 -65 -27 -113 -16 -76 17 -121 59 -134 124 -5 28 -9 66 -8 84 l2
31 28 -34 c16 -19 35 -34 43 -34 8 0 14 -8 14 -17 0 -33 41 -63 86 -63 48 0
104 38 104 71 0 25 -40 99 -57 106 -11 4 -43 63 -43 78 0 5 66 -12 85 -23z
m-3640 -59 c-19 -47 -26 -90 -21 -123 5 -34 3 -38 -29 -53 -39 -18 -39 -18
-49 40 -4 24 -1 35 12 43 16 9 16 11 0 20 -13 8 -15 17 -8 40 13 46 18 50 62
50 34 0 39 -3 33 -17z m553 -1 c2 -8 -10 -12 -36 -12 l-40 0 11 -35 c9 -31 14
-35 44 -35 31 0 33 -2 33 -32 0 -59 -29 -131 -67 -170 -20 -21 -40 -38 -43
-38 -3 0 -12 16 -19 36 -7 19 -16 34 -19 32 -4 -2 -24 -10 -45 -18 -31 -12
-36 -18 -30 -35 17 -52 11 -60 -44 -63 -51 -3 -114 9 -142 27 -11 7 -10 15 9
41 l23 32 -32 31 -32 32 -29 -32 c-26 -29 -29 -30 -44 -14 -29 31 -49 96 -50
158 -1 34 2 64 5 68 4 3 24 -1 44 -10 21 -8 39 -14 40 -13 1 2 7 17 14 34 l12
31 216 -2 c156 -1 218 -5 221 -13z m77 -9 c11 -30 18 -139 11 -177 -5 -25 -12
-36 -24 -36 -37 0 -41 12 -32 92 5 44 5 90 0 107 -8 28 -7 31 15 31 12 0 26
-8 30 -17z m2748 -160 c7 -11 -27 -53 -43 -53 -22 0 -52 122 -43 174 5 35 8
37 34 31 23 -5 29 -3 31 12 1 10 4 -20 7 -67 3 -47 9 -90 14 -97z m-476 141
c-3 -3 -12 -4 -19 -1 -8 3 -5 6 6 6 11 1 17 -2 13 -5z m943 -48 c0 -43 -35
-119 -76 -165 -25 -28 -49 -51 -53 -51 -4 0 -13 12 -20 26 -9 22 -9 30 2 43
28 31 47 80 47 120 0 40 0 40 43 43 49 4 57 1 57 -16z m-293 -62 c-3 -3 -12
-4 -19 -1 -8 3 -5 6 6 6 11 1 17 -2 13 -5z m-3548 -81 c31 -84 156 -173 243
-173 26 0 28 -3 28 -41 l0 -42 -36 6 c-96 16 -229 107 -286 196 -34 54 -35 65
-5 79 35 17 42 14 56 -25z m621 -34 c0 -4 -18 -33 -39 -65 -46 -69 -126 -126
-201 -144 -28 -7 -52 -11 -54 -9 -2 2 -6 21 -10 42 -6 33 -5 37 13 37 35 0
123 38 164 71 28 23 42 28 50 20 6 -6 18 -11 27 -11 11 0 9 5 -8 18 -21 16
-22 21 -12 44 11 23 15 24 41 15 16 -6 29 -14 29 -18z m2864 -14 c27 -8 64
-15 82 -15 26 0 33 -5 38 -26 4 -15 4 -29 1 -33 -15 -15 -122 -3 -163 18 l-42
22 17 24 c10 13 18 24 18 25 0 0 22 -7 49 -15z m-149 -123 l30 -23 -33 18
c-18 9 -49 35 -70 57 l-37 40 40 -34 c22 -19 54 -45 70 -58z m-3035 -42 c0
-22 -3 -40 -8 -40 -4 0 -6 18 -4 40 2 22 6 40 8 40 2 0 4 -18 4 -40z"/>
<path d="M2924 4376 c-3 -14 -3 -34 1 -46 13 -42 52 -1 41 43 -8 34 -34 35
-42 3z"/>
<path d="M2460 4361 c-13 -25 -13 -51 0 -51 6 0 10 9 10 19 0 28 21 37 36 16
18 -24 29 -13 14 14 -14 26 -46 27 -60 2z"/>
<path d="M2382 3974 c10 -10 20 -15 24 -12 3 4 -5 12 -18 18 -22 12 -22 12 -6
-6z"/>
<path d="M1150 2788 c-23 -51 -26 -108 -6 -108 20 0 33 20 40 65 4 22 10 50
13 63 10 41 -26 26 -47 -20z"/>
<path d="M965 2760 c-19 -38 -31 -115 -18 -123 20 -13 47 33 49 82 0 27 4 53
8 60 4 6 1 11 -8 11 -9 0 -22 -13 -31 -30z"/>
<path d="M775 2720 c-19 -38 -31 -115 -18 -123 6 -4 18 2 27 12 21 24 38 79
25 86 -5 4 -5 14 1 25 13 25 13 30 -5 30 -8 0 -21 -13 -30 -30z"/>
<path d="M1466 2355 c-18 -18 -21 -35 -6 -35 11 0 34 39 27 46 -3 3 -12 -2
-21 -11z"/>
<path d="M1179 2504 c-24 -29 -42 -77 -27 -72 20 7 50 54 46 73 -3 16 -4 16
-19 -1z"/>
<path d="M596 2368 c-8 -13 -17 -33 -21 -45 -10 -36 20 -18 39 22 19 39 19 45
6 45 -5 0 -16 -10 -24 -22z"/>
<path d="M1179 753 c-48 -60 -51 -103 -10 -143 73 -74 171 -39 171 61 0 40 -4
51 -31 73 -37 32 -108 36 -130 9z"/>
</g>
</svg>
